<svg xmlns="http://www.w3.org/2000/svg" viewBox="0 0 92.94 100"><defs><style>.cls-1{fill:white;fill-rule:evenodd;}</style></defs><title>iconAsset 1</title><g id="Layer_2" data-name="Layer 2"><g id="Layer_1-2" data-name="Layer 1"><path class="cls-1" d="M7.17,28V88.35l.1,1,.29.93L8,91l.59.71.76.58.82.45,1,.29,1,.09H80.77l1-.09,1-.29.82-.45.75-.58.6-.71.46-.8.29-.93.1-1V28ZM70,4.11l-.76.1-.72.25-.59.42-.49.51L67,6l-.29.7-.07.8V21l.07.77.29.73.4.61.49.55.59.38.72.29.76.07.79-.07.69-.29.62-.38.53-.55L73,22.5l.27-.73.1-.77V7.54l-.1-.8L73,6l-.39-.65-.53-.51-.62-.42-.69-.25L70,4.11Zm-23.08,0-.79.1-.69.25-.62.42-.53.51L43.92,6l-.26.7-.07.8V21l.07.77.26.73.36.61.53.55.62.38.69.29.79.07.76-.07.72-.29.59-.38.53-.55.43-.61.23-.73.1-.77V7.54l-.1-.8L49.94,6l-.43-.65L49,4.88l-.59-.42-.72-.25-.76-.1Zm-23.11,0-.75.1-.73.25-.59.42-.56.51L20.78,6l-.23.7-.1.8V21l.1.77.23.73.39.61.56.55.59.38.73.29.75.07.76-.07.69-.29.62-.38.56-.55.36-.61.27-.73.09-.77V7.54l-.09-.8L26.79,6l-.36-.65-.56-.51-.62-.42-.69-.25-.76-.1ZM23.8,0l1.25.1,1.18.29,1.06.44,1,.61.92.78.72.89.62,1,.5,1.09.26,1.15.1,1.22v3.31h7.82V7.54l.1-1.22.3-1.15.46-1.09.62-1,.76-.89.92-.78,1-.61L44.48.39,45.66.1,46.91,0l1.25.1,1.15.29L50.4.83l1,.61.88.78.76.89.62,1,.46,1.09.3,1.15.1,1.22v3.31H62.4V7.54l.09-1.22.27-1.15.46-1.09.66-1,.72-.89.92-.78,1-.61L67.59.39,68.77.1,70,0l1.25.1,1.18.29,1.12.44.95.61.92.78.76.89.63,1,.46,1.09.29,1.15.1,1.22v3.31h3.12l1.52.1,1.47.25,1.42.42,1.31.61,1.25.71,1.09.83,1,1,.89,1.06L91.49,17l.62,1.26.46,1.38.27,1.41.1,1.44V88.35l-.1,1.44-.27,1.45-.46,1.31-.62,1.29L90.77,95l-.89,1.09-1,1-1.09.86-1.25.71-1.31.61-1.42.42-1.47.29-1.52.06H12.16l-1.51-.06-1.48-.29-1.41-.42-1.32-.61-1.25-.71-1.08-.86-1-1L2.17,95l-.72-1.15-.6-1.29L.36,91.24.1,89.79,0,88.35V22.5l.1-1.44.26-1.41.49-1.38L1.45,17l.72-1.18.92-1.09,1-1,1.08-.83,1.25-.74,1.32-.58,1.41-.42L10.65,11l1.51-.1h4V7.54l.1-1.22.27-1.15L17,4.08l.59-1,.79-.89.89-.78,1-.61L21.4.39,22.55.1,23.8,0ZM21.92,49.52H10.59a1,1,0,0,1-.95-1V37.24a1,1,0,0,1,.95-1H21.92a1,1,0,0,1,.94,1V48.57A1,1,0,0,1,21.92,49.52Zm19.83,0H30.42a1,1,0,0,1-.94-1V37.24a1,1,0,0,1,.94-1H41.75a1,1,0,0,1,1,1V48.57A1,1,0,0,1,41.75,49.52Zm19.84,0H50.26a1,1,0,0,1-.95-1V37.24a1,1,0,0,1,.95-1H61.59a1,1,0,0,1,.95,1V48.57A1,1,0,0,1,61.59,49.52Zm19.84,0H70.1a1,1,0,0,1-.95-1V37.24a1,1,0,0,1,.95-1H81.43a1,1,0,0,1,.94,1V48.57A1,1,0,0,1,81.43,49.52ZM21.92,66.05H10.59a1,1,0,0,1-.95-1V53.77a1,1,0,0,1,.95-1H21.92a1,1,0,0,1,.94,1V65.1A1,1,0,0,1,21.92,66.05Zm19.83,0H30.42a1,1,0,0,1-.94-1V53.77a1,1,0,0,1,.94-1H41.75a1,1,0,0,1,1,1V65.1A1,1,0,0,1,41.75,66.05Zm19.84,0H50.26a1,1,0,0,1-.95-1V53.77a1,1,0,0,1,.95-1H61.59a1,1,0,0,1,.95,1V65.1A1,1,0,0,1,61.59,66.05Zm19.84,0H70.1a1,1,0,0,1-.95-1V53.77a1,1,0,0,1,.95-1H81.43a1,1,0,0,1,.94,1V65.1A1,1,0,0,1,81.43,66.05ZM21.92,82.58H10.59a1,1,0,0,1-.95-1V70.3a1,1,0,0,1,.95-1H21.92a1,1,0,0,1,.94,1V81.63A1,1,0,0,1,21.92,82.58Zm19.83,0H30.42a1,1,0,0,1-.94-1V70.3a1,1,0,0,1,.94-1H41.75a1,1,0,0,1,1,1V81.63A1,1,0,0,1,41.75,82.58Zm19.84,0H50.26a1,1,0,0,1-.95-1V70.3a1,1,0,0,1,.95-1H61.59a1,1,0,0,1,.95,1V81.63A1,1,0,0,1,61.59,82.58Zm19.84,0H70.1a1,1,0,0,1-.95-1V70.3a1,1,0,0,1,.95-1H81.43a1,1,0,0,1,.94,1V81.63A1,1,0,0,1,81.43,82.58Z"/></g></g></svg>
