<svg xmlns="http://www.w3.org/2000/svg" viewBox="0 0 84.01 100"><defs><style>.cls-1{fill:white;fill-rule:evenodd;}</style></defs><title>iconAsset 2</title><g id="Layer_2" data-name="Layer 2"><g id="Layer_1-2" data-name="Layer 1"><path class="cls-1" d="M84,70.86l-.19-1.68-.39-1.59L82.88,66l-.59-1.33-.71-1.22-.84-1.1-.9-1-1-.91-1.09-.77L76.51,59l-1.26-.48-1.32-.42-1.39-.23-1.68-.06-1.72,0-1.71.26-1.74.45L64,59.22,62.23,60,60.52,61,58.8,62.1l-1.71,1.32-1.68,1.49-1.65,1.62L52.12,68.3l-1.62,2L49,72.37l-2,2.75-2,2.49L43,80,41,82.1,39.06,84l-1.9,1.74-1.88,1.62-1.84,1.42L31.7,90.08l-1.78,1.1-1.68,1L26.62,93,25,93.76l-1.49.68L22.07,95l-1.33.42-1.29.39-1.19.26-1.1.22-1,.13-.9.1-.84.07-.68,0h-.58l-1.39-.1-1.2-.16-1.06-.26-.94-.26-.84-.35L7,95.06l-.51-.42-.36-.39-.35-.65-.13-.68,0-.71.07-.77L6,90.63l.25-.81L6.59,89,7,88.14l.49-.81.58-.8.52-.78L9.21,85l.61-.68.52-.65.55-.58,1.16.78,1.26.58,1.29.42,1.36.29,1.39.06,1.23-.06,1.23-.23L21,84.59l1.1-.45,1.1-.59,1-.71.9-.87,24-24.13,1,.06,1,0,1.74-.06,1.71-.26,1.62-.45,1.58-.58,1.59-.75L60.71,55l1.36-1,1.29-1.2,1.16-1.29,1-1.39.9-1.49L67.17,47l.55-1.61.42-1.65.26-1.71.07-1.75-.07-1.74-.26-1.71-.42-1.68-.55-1.59-.71-1.55-.9-1.48-1-1.39-1.16-1.3L62.1,26.72l-1.32-1-1.39-.87L58,24.17l-1.51-.58L55,23.17l-1.62-.29-1.55-.13H50.21l-1.58.13-1.55.29-1.52.42L44,24.17l-1.42.71-1.39.87-1.36,1-1.19,1.16-1.23,1.3-1,1.39-.91,1.48-.74,1.55-.55,1.59-.42,1.68-.26,1.71-.06,1.74,0,1,0,.94L9.6,66.4l-.81,1-.68,1-.65,1.09L7,70.53l-.32,1.2L6.46,73l0,1.26.06,1.42L6.75,77l.42,1.29.58,1.26.78,1.13-.65.68-.64.77L6.49,83l-.74.94L5,85l-.78,1.26-.67,1.19-.49,1.1L2.71,89.6l-.22,1-.16.9-.07.84,0,.81.1.68.19.71.2.58.29.52.29.48.58.78.75.71.87.58,1,.52,1.1.45,1.19.35,1.36.29,1.39.17,1.45.06h.36l1.13,0,1.2-.07,1.32-.16,1.42-.22,1.46-.36,1.61-.42,1.68-.55L25,97.54l1.84-.8,1.94-.94,2-1.13,2.45-1.55,2.49-1.75,2.39-1.94,2.39-2.06,2.3-2.3,2.32-2.42,2.23-2.59,2.23-2.77,2.17-2.91,1.48-2,1.52-1.84,1.58-1.74,1.62-1.52,1.55-1.36,1.62-1.23,1.61-1,1.65-.87,1.55-.68,1.62-.51,1.58-.33,1.52-.06,1.48,0,1.17.23,1.1.35,1,.42.93.58.91.71.74.78.71.87.62,1,.48,1.07.42,1.29L80.48,70l.17,1.39v1.52l-.17,1.52L80.26,76l-.42,1.52-.55,1.65-.68,1.68-.77,1.58L76.9,84.1l-1,1.65L74.7,87.43l-1.32,1.65L71.44,91.5l-1.81,2.36-1.71,2.36-.23.39-.1.45v.42l.13.42.26.36.32.32.39.22.45.1h.42l.39-.16.42-.23.26-.32,1.68-2.26,1.78-2.3L76,91.24l1.46-1.87,1.32-1.84L80,85.62l1-1.94.87-1.87.74-1.87L83.2,78l.42-1.81.26-1.81L84,72.6ZM37,39.16,37.09,38,53.28,54.35l-1.16.12-1.1.07-1.42-.1-1.36-.19-1.36-.32-1.26-.46-1.26-.61-1.16-.71-1.13-.84-1-.94-.93-1.06-.84-1.1L38.58,47,38,45.75l-.45-1.29-.32-1.36L37,41.71l0-1.39Zm-2.45,7,.55,1.42L35.77,49l.84,1.36,1,1.2,1.1,1.19,1.16,1.1,1.23.94,1.29.84,1.39.68,1.42.61L23.88,78.38,13.21,67.63Zm-24.66,27,.23-1,.36-1,.51-.93L21.36,80.65l-.94.51-1,.36-1,.22-1.1.1-1-.1-1-.19-.94-.29-.87-.42-.84-.58L12,79.58l-.65-.78-.55-.8-.42-.88-.32-.93-.2-1,0-1Z"/><polygon class="cls-1" points="31.79 20.52 31.76 21.61 31.54 22.68 31.15 23.75 30.7 24.59 30.14 25.33 29.43 26.01 28.69 26.59 27.88 27.08 27.01 27.43 26.14 27.72 25.27 27.85 24.39 27.92 23.43 27.85 22.42 27.69 21.52 27.37 20.65 26.95 19.84 26.43 19.09 25.78 18.48 25.07 17.9 24.3 17.48 23.39 17.19 22.36 17 21.36 17 20.39 17.19 19.35 17.45 18.42 17.87 17.51 18.45 16.7 19.06 15.93 19.87 15.25 20.77 14.7 21.75 14.25 22.81 13.96 23.84 13.8 24.85 13.8 25.91 13.96 21.84 3.75 7.98 8.79 14.28 24.52 14.6 25.59 14.77 26.69 14.73 27.82 14.54 28.92 14.12 29.92 13.67 30.76 13.09 31.5 12.44 32.21 11.7 32.8 10.89 33.25 9.98 33.67 9.14 33.89 8.24 34.09 7.37 34.09 6.4 34.05 5.43 33.89 4.46 33.57 3.62 33.15 2.84 32.63 2.1 31.99 1.42 31.28 0.87 30.44 0.45 29.53 0.13 28.53 0 27.56 0 26.53 0.13 25.56 0.42 24.62 0.84 23.75 1.39 22.88 2.07 22.1 2.88 21.45 3.75 20.87 4.72 20.42 5.75 20.13 6.82 20 7.85 20 8.88 20.13 4.2 8.43 4.14 7.98 4.14 7.56 4.23 7.14 4.46 6.79 4.78 6.53 5.2 6.3 22.2 0.16 22.65 0 23.1 0.03 23.52 0.16 23.91 0.39 24.23 0.71 24.43 1.07 31.28 18.35 31.63 19.42 31.79 20.52"/></g></g></svg>
