<svg id="Layer_1" data-name="Layer 1" xmlns="http://www.w3.org/2000/svg" viewBox="0 0 100 91.19"><defs><style>.cls-1{fill:white;fill-rule:evenodd;}</style></defs><title>stages</title><path class="cls-1" d="M44.63,67.33,44.5,67l-.21-.39L44,66.3,31.88,57.46l-.39-.21-.43-.15h-.42l-.42.15-.37.21L17.77,66.3l-.33.28-.21.39-.15.36-.07.43.07.42.15.39.21.34.33.24,12.08,8.93.49.24.54.09.49-.09.51-.24L44,69.15l.33-.24.21-.34.13-.39.06-.42Zm-17-12.77-.15-.43-.18-.33-.37-.27-12-8.87-.4-.25-.42-.09h-.43l-.42.09-.39.25-12,8.87-.34.27-.21.33-.15.43L0,55l.06.42.15.43.21.3.34.3,12.05,8.87.54.28.52.06.48-.06.52-.28,12-8.87.37-.3.18-.3.15-.43.06-.42Zm53.23,12.8L80.68,67l-.24-.39-.3-.25L68.06,57.46l-.42-.21-.4-.15h-.39l-.43.15-.39.21L54,66.33l-.33.25-.21.39-.16.39-.06.4.06.45.16.39.21.31.33.27L66,78.11l.3.18.37.09.33,0,.36,0,.31-.09.36-.18,12.08-8.93.3-.27.24-.31.16-.39,0-.45Zm19.1-12.8-.15-.43-.27-.33-.31-.27-13-8.87-.42-.25-.42-.09h-.43l-.48.09-.4.25L71,53.53l-.34.27-.24.33-.18.43,0,.39,0,.42.18.43.24.3.34.3,13,8.87.34.22.39.09.36,0,.37,0,.33-.09.36-.22,13-8.87.31-.3.27-.3.15-.43L100,55ZM63.82,80.08l-.18-.36-.24-.37-.34-.3-13-8.87L49.62,70l-.45-.09h-.43l-.45.09-.42.21-13,8.87-.34.3-.24.37-.15.36-.06.42.06.43.15.39.24.36.34.28,13,8.9.33.18.39.12.37,0,.36,0,.39-.12.34-.18,13-8.9.34-.28.24-.36.18-.39,0-.43Zm0-25.52-.18-.43-.24-.33-.34-.27L57,49.38v0l-.76,1.24L55.46,52l-.66,1.3-.67,1.61L54,55.1l-.12.18-.21.37-.18.3-.25.24-.27.27-.24.25-.3.18-.37.21-.42.27-.48.12-.34.06-.33.09H49.47l-.33-.09-.34-.06-.48-.12-.42-.27-.37-.21-.24-.15-.21-.19-.27-.27-.4-.33-.24-.45L46,55.13,45.93,55l-.06-.12-.73-1.7-.73-1.45-.87-1.48-.85-1.4-.33-.48-7.51,5.12-.34.27-.24.33-.15.43-.06.39.06.42.15.43.24.3.34.3,13,8.87.33.22.39.09.37,0,.36,0,.39-.09.34-.22,13-8.87.34-.3.24-.3.18-.43,0-.42ZM39.93,45.2l-1-1.15-1.09-1.18-1-1.12-1-1.12-1.09-1.18-.94-1.15-1-1.24-.94-1.21L31,34.57l-.79-1.24-.09-.12L30,33.09l-.51-1L17.77,40.75l-.33.27-.21.34-.15.42-.07.39.07.43.15.39.21.36.33.28L29.85,52.5l.49.24.54.09.49-.09.51-.24,8.72-6.42Zm40.91-3.42-.16-.42L80.44,41l-.3-.27L69.88,33.18l-.67,1.06-.7,1.09-.06.09-.09.09-.85,1.12-.84,1-.91,1.09-.91,1-.88,1-.94,1-.9,1-.91,1-.91,1.09-.85,1L58.61,47v0L66,52.5l.46.24.54.09.51-.09.52-.24,12.08-8.87.3-.28.24-.36.16-.39,0-.43ZM70.18,18.5l-.27-1.82L69.51,15,69,13.23l-.7-1.6-.82-1.55L66.52,8.6,65.43,7.21,64.27,6,63,4.78,61.64,3.69l-1.48-.93-1.55-.82L57,1.27,55.31.7,53.56.33,51.77.09,49.89,0,48.05.12,46.26.36,44.6.73,43,1.3l-1.57.64-1.46.82-1.42.9-1.3,1L36,5.78,34.88,7l-1,1.31-.91,1.39-.82,1.48-.69,1.52-.61,1.6L30.37,16,30,17.62l-.21,1.73-.06,1.72.09,1.76.27,1.75.31,1.61.45,1.48.58,1.39.6,1.34.67,1.3.78,1.21.22.3.6.85.88,1.18,1,1.15.94,1.09,2,2.24,1,1.12L41.21,42l1,1.24.82,1,.18.21,1,1.34.64.88.36.51.91,1.45L47,50.29,47.87,52l.78,1.76.18.33.31.27.33.22.36.09h.34l.33-.09.36-.22.28-.27.21-.33L52,52.1l.73-1.54.79-1.39.85-1.36.09-.13.78-1.18.88-1.24.91-1.18L58,43l.94-1.09,1-1.09.91-1,.91-1.06.88-1,.91-1,.85-1,.81-1L66,33.67l.73-1.09.6-1,.06-.09L68,30.34l.54-1.25.52-1.24.39-1.33.3-1.42L70,23.62,70.21,22l0-1.63Zm-9.6,3.21L60.34,23,60,24.22l-.55,1.18-.06.09-.57,1-.82,1-.88.91-1,.79L55,29.85l-1.15.52-1.21.39-1.3.27L50,31.12,48.65,31l-1.3-.27-1.21-.39L45,29.85l-1.09-.66-1-.79L42,27.49l-.78-1-.64-1.09-.49-1L40,24.22,39.63,23l-.24-1.3-.06-1.33.06-1.4.24-1.24L40,16.47l.58-1.18.64-1.09.78-1,.88-.91,1-.75,1.09-.7,1.15-.52,1.21-.42,1.3-.24L50,9.63l1.37.06,1.3.24,1.21.42,1.15.52,1.09.7,1,.75.88.91.82,1,.63,1.09L60,16.47l.36,1.27L60.58,19l.09,1.4Z"/></svg>
